<svg width="512" height="346" viewBox="0 0 512 346" fill="none" xmlns="http://www.w3.org/2000/svg">
<path d="M419.203 232.343L419.99 232.352C423.884 232.441 427.261 233.195 430.104 234.634H430.103C433.148 236.148 435.478 238.308 437.075 241.11L437.368 241.637C438.787 244.303 439.489 247.388 439.489 250.876C439.488 254.615 438.681 257.861 437.045 260.593L437.044 260.594C435.408 263.31 433.037 265.387 429.954 266.827L429.955 266.828C429.951 266.83 429.945 266.831 429.941 266.833L441.394 287.806L441.798 288.545H427.772L427.631 288.281L417.316 268.976H409.596V288.545H396.925V232.343H419.203ZM409.596 258.597H417.021C419.207 258.597 420.988 258.297 422.381 257.719C423.767 257.145 424.773 256.294 425.43 255.177L425.433 255.172C426.111 254.047 426.467 252.624 426.467 250.876C426.467 249.11 426.112 247.657 425.43 246.493L425.427 246.489C424.768 245.336 423.752 244.451 422.347 243.841L422.34 243.838C420.951 243.212 419.168 242.885 416.967 242.885H409.596V258.597Z" fill="black" stroke="white"/>
<path d="M354.226 232.344V267.695C354.226 269.721 354.666 271.503 355.535 273.054L355.706 273.341C356.58 274.758 357.768 275.883 359.278 276.719C360.882 277.606 362.764 278.058 364.939 278.058C367.133 278.058 369.014 277.605 370.598 276.72L370.6 276.719C372.21 275.828 373.444 274.608 374.314 273.057L374.316 273.054C375.202 271.503 375.652 269.721 375.652 267.695V232.344H388.323V268.692C388.323 272.8 387.34 276.416 385.361 279.524C383.403 282.627 380.663 285.042 377.154 286.769L377.152 286.77C373.64 288.48 369.564 289.327 364.939 289.327C360.296 289.327 356.211 288.48 352.699 286.77L352.697 286.769C349.188 285.042 346.447 282.628 344.49 279.525C342.528 276.417 341.555 272.799 341.555 268.692V232.344H354.226Z" fill="black" stroke="white"/>
<path d="M312.912 231.589C317.065 231.589 320.713 232.3 323.846 233.736H323.847C326.992 235.171 329.457 237.176 331.222 239.758C332.989 242.343 333.895 245.334 333.95 248.711L333.959 249.22H321.812L321.768 248.769C321.565 246.723 320.704 245.168 319.192 244.055C317.67 242.934 315.567 242.346 312.831 242.346C310.97 242.346 309.431 242.61 308.196 243.117L308.19 243.119C306.947 243.613 306.023 244.291 305.388 245.138C304.771 245.983 304.463 246.938 304.463 248.019V248.037C304.43 248.94 304.618 249.701 305.008 250.342C305.433 251.012 306.019 251.6 306.774 252.104H306.773C307.546 252.601 308.445 253.042 309.475 253.426H309.474C310.251 253.702 311.07 253.95 311.93 254.168L312.806 254.377L312.812 254.379L317.764 255.562H317.765C320.201 256.108 322.444 256.837 324.49 257.751C326.544 258.668 328.332 259.8 329.848 261.149C331.373 262.507 332.556 264.108 333.394 265.951H333.393C334.253 267.804 334.687 269.915 334.705 272.273V272.279C334.687 275.745 333.8 278.774 332.029 281.346L332.03 281.347C330.279 283.899 327.754 285.868 324.482 287.265L324.481 287.266C321.224 288.646 317.317 289.326 312.777 289.326C308.271 289.326 304.322 288.636 300.942 287.24H300.941C297.573 285.841 294.923 283.762 293.013 280.998L293.011 280.995C291.113 278.204 290.132 274.771 290.04 270.725L290.028 270.214H302.301L302.333 270.68C302.453 272.449 302.956 273.895 303.818 275.042L303.989 275.254C304.861 276.296 305.996 277.099 307.409 277.661H307.408C308.94 278.245 310.683 278.542 312.643 278.542C314.572 278.542 316.223 278.261 317.606 277.715L317.608 277.714C319.017 277.164 320.078 276.412 320.821 275.471C321.559 274.537 321.927 273.469 321.927 272.25C321.927 271.117 321.593 270.196 320.944 269.452L320.94 269.447C320.287 268.68 319.301 268.001 317.946 267.428L317.943 267.427C316.593 266.848 314.924 266.317 312.93 265.836L312.925 265.835L306.914 264.325V264.324C302.207 263.179 298.451 261.38 295.679 258.903C292.862 256.387 291.477 253 291.495 248.798C291.478 245.362 292.395 242.338 294.258 239.748L294.26 239.746C296.132 237.169 298.695 235.167 301.928 233.734C305.164 232.3 308.829 231.589 312.912 231.589Z" fill="black" stroke="white"/>
<path d="M257.825 231.589C262.773 231.589 267.243 232.722 271.224 234.996L271.597 235.211C275.425 237.462 278.456 240.677 280.69 244.843C283.02 249.155 284.173 254.362 284.173 260.444C284.173 266.526 283.02 271.734 280.69 276.046C278.456 280.211 275.425 283.434 271.598 285.702L271.225 285.919C267.244 288.175 262.773 289.3 257.825 289.3C252.84 289.3 248.351 288.167 244.37 285.892C240.383 283.614 237.237 280.317 234.931 276.018C232.619 271.706 231.476 266.508 231.476 260.444C231.476 254.363 232.62 249.156 234.931 244.845C237.237 240.545 240.383 237.256 244.371 234.996C248.352 232.721 252.841 231.589 257.825 231.589ZM257.825 242.912C255.089 242.912 252.725 243.582 250.714 244.905C248.706 246.227 247.128 248.174 245.993 250.775L245.994 250.776C244.878 253.374 244.309 256.591 244.309 260.444C244.309 264.297 244.878 267.515 245.994 270.112H245.993C247.128 272.714 248.706 274.662 250.714 275.983C252.725 277.307 255.089 277.977 257.825 277.977C260.56 277.977 262.924 277.307 264.935 275.983C266.943 274.662 268.512 272.714 269.629 270.112L269.63 270.109C270.763 267.512 271.34 264.297 271.34 260.444C271.34 256.592 270.763 253.376 269.63 250.779L269.629 250.776C268.512 248.174 266.943 246.227 264.935 244.905C262.924 243.582 260.56 242.912 257.825 242.912Z" fill="black" stroke="white"/>
<path d="M205.581 232.343C209.83 232.343 213.483 233.155 216.519 234.802L217.078 235.115C219.833 236.713 221.963 238.877 223.457 241.603L223.75 242.149C225.165 244.907 225.865 248.044 225.865 251.549C225.865 255.289 225.059 258.611 223.43 261.5C221.799 264.391 219.434 266.641 216.352 268.247L216.351 268.246C213.28 269.854 209.585 270.647 205.284 270.647H195.974V288.545H183.303V232.343H205.581ZM195.974 260.295H203.398C205.59 260.295 207.354 259.918 208.716 259.195C210.107 258.448 211.126 257.431 211.795 256.144L211.796 256.142C212.49 254.822 212.845 253.295 212.845 251.549C212.845 249.785 212.49 248.269 211.799 246.989L211.795 246.982C211.127 245.697 210.11 244.7 208.723 243.99L208.719 243.987C207.338 243.263 205.555 242.885 203.344 242.885H195.974V260.295Z" fill="black" stroke="white"/>
<path d="M140.773 232.344L140.919 232.589L151.836 251.041L162.807 232.588L162.953 232.344H177.308L176.844 233.104L160.159 260.44L177.219 287.78L177.696 288.545H163.089L162.943 288.303L151.836 269.815L140.728 288.303L140.583 288.545H126.027L126.507 287.78L143.619 260.441L126.828 233.105L126.36 232.344H140.773Z" fill="black" stroke="white"/>
<path d="M119.755 217.416V230.64H87.3271V246.351H117.324V259.576H87.3271V275.32H119.893V288.545H71.5V217.416H119.755Z" fill="black" stroke="white"/>
<circle cx="431.659" cy="199.302" r="9.00647" fill="#BDD442"/>
<circle cx="408.842" cy="199.302" r="9.00647" fill="#A37BB9"/>
<circle cx="383.624" cy="199.302" r="9.00647" fill="#5589C7"/>
<circle cx="359.607" cy="199.302" r="9.00647" fill="#FDEB05"/>
<circle cx="335.589" cy="199.302" r="9.00647" fill="#EC603C"/>
<circle cx="311.572" cy="199.302" r="9.00647" fill="#FC5857"/>
<path d="M280.41 195.304C276.342 198.016 279.054 210.219 279.054 212.931V212.932C279.054 215.101 279.054 218.355 276.342 218.355C273.63 216.999 274.986 214.287 270.918 208.864C266.851 203.44 266.851 200.728 266.851 198.016C266.851 195.304 263.688 184.887 260.977 183.531C258.265 182.175 258.715 176.321 256.003 170.897C253.291 165.474 234.308 162.762 231.596 161.406C228.884 160.05 215.325 160.05 213.969 160.05C212.613 160.05 208.782 154.626 208.782 150.558C208.782 146.491 204.715 135.643 200.647 128.864C197.393 123.44 207.189 126.604 209.901 124.796L216.681 70.5585C218.941 71.0105 223.732 72.1856 224.816 73.2704C226.172 74.6263 238.376 81.4059 241.088 81.4059C243.257 81.4059 243.799 78.6941 243.799 77.3382C244.251 75.0783 245.155 70.2873 245.155 69.2026C245.155 68.1178 250.579 68.7506 253.291 69.2026C256.003 72.8184 261.698 80.3212 262.782 81.4059C263.867 82.4907 276.794 83.6658 283.121 84.1178C283.573 82.7619 284.749 79.5076 285.833 77.3382C286.918 75.1687 286.285 69.2026 285.833 66.4907C287.189 66.4907 290.443 66.7619 292.613 67.8466C294.782 68.9314 298.037 71.9144 299.393 73.2704L416.24 65.1348L421.427 73.2704L392.952 170.897L382.105 161.406L379.393 153.27H302.104C299.845 160.954 294.782 176.864 292.613 179.033C289.901 181.745 284.477 192.592 280.41 195.304Z" fill="#D0D0D0"/>
<path d="M274.987 185.814C270.919 188.525 273.631 200.729 273.631 203.441V203.441C273.631 205.611 273.631 208.864 270.92 208.864C268.208 207.508 269.564 204.797 265.496 199.373C261.428 193.949 261.428 191.237 261.428 188.525C261.428 185.814 257.36 179.034 254.648 177.678C251.937 176.322 253.292 166.83 250.581 161.407C247.869 155.983 228.886 153.271 226.174 151.915C223.462 150.559 209.903 150.559 208.547 150.559C207.191 150.559 207.191 139.712 207.191 135.644C207.191 131.576 204.479 134.288 200.411 127.508C197.157 122.085 201.767 117.113 204.479 115.305L211.258 61.0678C213.518 61.5198 218.309 62.6949 219.394 63.7797C220.75 65.1356 232.953 71.9152 235.665 71.9152C237.834 71.9152 238.377 69.2034 238.377 67.8475C238.829 65.5876 239.733 60.7966 239.733 59.7119C239.733 58.6271 245.157 59.2599 247.868 59.7119C250.58 63.3277 256.275 70.8305 257.36 71.9152C258.445 73 271.371 74.1751 277.699 74.6271C278.151 73.2712 279.326 70.0169 280.411 67.8475C281.495 65.678 280.863 59.7119 280.411 57C281.767 57 285.021 57.2712 287.19 58.3559C289.36 59.4407 292.614 62.4237 293.97 63.7797H416.004L387.529 161.407L376.682 151.915L373.97 143.78H296.682C294.422 151.463 289.36 167.373 287.19 169.542C284.479 172.254 279.055 183.102 274.987 185.814Z" fill="url(#paint0_linear_635_92)"/>
<defs>
<linearGradient id="paint0_linear_635_92" x1="211.495" y1="100.39" x2="399.969" y2="109.881" gradientUnits="userSpaceOnUse">
<stop stop-color="#DF5A5F"/>
<stop offset="1" stop-color="#D44475"/>
</linearGradient>
</defs>
</svg>
